<?xml version="1.0" standalone="no"?>
<!DOCTYPE svg PUBLIC "-//W3C//DTD SVG 20010904//EN"
 "http://www.w3.org/TR/2001/REC-SVG-20010904/DTD/svg10.dtd">
<svg version="1.0" xmlns="http://www.w3.org/2000/svg"
 width="512.000000pt" height="512.000000pt" viewBox="0 0 512.000000 512.000000"
 preserveAspectRatio="xMidYMid meet">

<g transform="translate(0.000000,512.000000) scale(0.100000,-0.100000)"
fill="#000000" stroke="none">
<path d="M1805 3677 c-22 -8 -56 -22 -75 -32 -58 -30 -1260 -725 -1327 -767
-75 -47 -118 -94 -152 -168 -22 -47 -26 -69 -26 -150 0 -85 3 -102 31 -160 20
-43 48 -80 80 -109 57 -50 1369 -810 1454 -842 163 -61 367 26 448 191 24 49
27 66 27 155 0 93 -2 105 -33 167 -52 105 -30 90 -696 474 -104 60 -191 114
-193 119 -2 6 169 109 378 230 210 121 398 233 418 248 119 94 167 273 111
420 -31 81 -111 166 -192 202 -74 34 -188 43 -253 22z m-1154 -775 c28 -2 38
-7 42 -23 3 -12 10 -19 14 -16 13 8 77 -15 98 -36 10 -10 25 -15 33 -12 9 3
13 3 9 -1 -11 -12 57 -64 84 -64 14 0 34 -10 45 -22 14 -16 14 -19 2 -10 -14
11 -16 11 -14 -4 2 -11 13 -18 34 -19 19 -2 29 1 26 7 -4 6 5 3 19 -6 14 -10
27 -26 30 -36 4 -16 13 -19 50 -17 25 1 43 -1 41 -5 -2 -3 5 -13 16 -21 11 -7
17 -17 12 -21 -4 -4 -2 -7 3 -6 27 6 44 -1 39 -15 -4 -9 0 -15 7 -15 12 0 12
-2 0 -9 -8 -5 -9 -11 -3 -15 5 -3 12 1 16 9 6 17 27 21 24 4 -2 -6 3 -14 11
-17 8 -3 11 0 7 7 -5 8 0 8 19 -1 14 -6 28 -22 31 -35 5 -20 11 -23 35 -19 31
5 84 -28 73 -46 -3 -5 2 -9 12 -8 39 4 54 -1 80 -27 15 -15 33 -28 38 -29 6 0
16 -2 22 -2 7 -1 15 -13 18 -26 4 -16 14 -24 31 -25 14 -1 34 -3 45 -4 18 -1
26 -22 21 -51 -1 -5 4 -5 11 1 9 8 24 7 53 -3 22 -7 41 -14 43 -14 1 0 2 -9 2
-20 0 -11 5 -20 11 -20 5 0 7 5 4 10 -10 15 12 12 28 -5 9 -8 13 -24 10 -35
-5 -18 -2 -20 29 -17 51 6 78 -8 78 -38 0 -27 18 -33 39 -12 11 10 12 9 6 -2
-6 -10 -2 -12 13 -7 23 8 67 -27 57 -44 -4 -6 3 -10 14 -10 21 0 46 -32 34
-44 -3 -3 2 -6 13 -6 27 0 43 -31 37 -73 -4 -35 10 -52 20 -24 2 6 10 -8 17
-33 21 -75 -1 -213 -31 -194 -6 3 -8 -6 -5 -19 3 -20 0 -26 -22 -30 -23 -5
-27 -11 -29 -41 -2 -48 -25 -70 -73 -68 -32 2 -37 -1 -33 -17 6 -23 -16 -33
-82 -37 -27 -1 -67 -5 -88 -7 -20 -3 -40 -1 -43 4 -3 5 -18 9 -34 9 -23 0 -27
4 -23 19 6 23 -34 36 -56 18 -12 -9 -13 -9 -7 1 4 7 2 12 -7 12 -8 0 -25 9
-38 21 -13 11 -18 18 -11 14 6 -3 12 -1 12 4 0 6 -18 11 -40 11 -34 0 -43 5
-58 28 -10 18 -24 28 -35 26 -10 -1 -32 2 -48 8 -27 9 -34 19 -30 42 1 5 -5 6
-14 2 -19 -7 -58 30 -49 47 4 7 4 9 -1 5 -4 -4 -16 -3 -26 3 -15 8 -17 6 -13
-6 5 -12 -2 -11 -30 6 -28 16 -35 26 -30 41 6 19 5 19 -23 2 -25 -17 -27 -17
-14 -1 12 15 10 17 -20 18 -19 1 -37 1 -40 1 -4 -1 -10 9 -13 22 -5 19 -12 24
-34 22 -25 -2 -28 1 -25 29 2 22 1 25 -5 12 -8 -18 -9 -18 -22 -1 -9 11 -10
15 -2 10 6 -4 12 -2 12 3 0 6 -9 11 -20 11 -14 0 -18 -5 -13 -17 5 -14 0 -12
-26 6 -23 17 -30 28 -26 42 5 15 1 19 -15 19 -12 0 -18 -4 -15 -10 4 -6 11 -7
17 -4 7 5 8 2 4 -5 -6 -9 -12 -9 -25 3 -10 9 -30 17 -44 18 -15 1 -28 8 -28
15 -3 27 -4 32 -13 40 -6 5 -6 2 -1 -6 6 -11 4 -13 -11 -7 -10 4 -32 10 -48
13 -16 4 -31 14 -33 24 -3 11 -9 16 -14 13 -5 -3 -9 0 -9 6 0 7 -7 10 -15 6
-14 -5 -17 -2 -19 27 -1 16 -23 25 -61 27 -34 1 -78 29 -57 37 24 9 2 20 -37
17 -37 -3 -63 12 -73 41 -2 5 -12 11 -23 12 -36 5 -75 25 -75 38 0 7 -11 16
-25 19 -18 5 -25 13 -25 32 0 18 -5 25 -17 23 -30 -3 -44 1 -39 9 7 12 -24 53
-35 47 -5 -4 -9 5 -9 18 0 13 -3 27 -7 30 -3 4 -7 42 -7 85 -1 42 -5 86 -10
96 -6 13 -6 17 1 13 6 -4 10 9 11 31 2 53 21 92 44 92 14 0 18 5 14 15 -7 20
35 60 46 43 5 -9 8 -5 8 10 0 12 5 22 10 22 6 0 10 7 10 15 0 9 6 12 15 9 8
-4 22 -1 30 6 8 7 15 8 15 3 0 -5 7 -10 15 -10 8 0 15 4 15 9 0 4 -5 8 -12 8
-6 0 -9 3 -5 6 10 10 70 21 107 19 19 -1 51 -2 71 -3z m1421 -1414 c-7 -7 -12
-8 -12 -2 0 6 3 14 7 17 3 4 9 5 12 2 2 -3 -1 -11 -7 -17z"/>
<path d="M860 2760 c0 -5 5 -10 10 -10 6 0 10 5 10 10 0 6 -4 10 -10 10 -5 0
-10 -4 -10 -10z"/>
<path d="M3133 3680 c-99 -21 -200 -101 -249 -197 -27 -53 -29 -67 -29 -163 0
-94 3 -111 27 -160 48 -97 95 -131 513 -372 215 -124 526 -304 693 -401 193
-112 321 -180 354 -187 78 -19 186 -8 252 25 68 34 148 117 178 182 18 39 22
67 23 148 0 93 -2 105 -32 165 -18 36 -49 82 -70 102 -21 20 -150 101 -288
181 -137 79 -443 255 -680 392 -236 137 -449 257 -473 267 -49 22 -158 31
-219 18z"/>
</g>
</svg>
